<svg fill="#fff" width="22px" height="22px" viewBox="0 0 0.66 0.66" xmlns="http://www.w3.org/2000/svg"><path d="M0.578 0.33a0.028 0.028 0 0 0 -0.028 0.028v0.165a0.028 0.028 0 0 1 -0.028 0.028H0.138a0.028 0.028 0 0 1 -0.028 -0.028V0.138a0.028 0.028 0 0 1 0.028 -0.028h0.165a0.028 0.028 0 0 0 0 -0.055H0.138a0.083 0.083 0 0 0 -0.083 0.083v0.385a0.083 0.083 0 0 0 0.083 0.083h0.385a0.083 0.083 0 0 0 0.083 -0.083v-0.165a0.028 0.028 0 0 0 -0.028 -0.028Zm-0.412 0.021V0.468a0.028 0.028 0 0 0 0.028 0.028h0.117a0.028 0.028 0 0 0 0.02 -0.008l0.19 -0.191L0.597 0.22a0.028 0.028 0 0 0 0 -0.039l-0.117 -0.118a0.028 0.028 0 0 0 -0.039 0l-0.078 0.078 -0.191 0.191a0.028 0.028 0 0 0 -0.008 0.02Zm0.296 -0.23 0.078 0.078 -0.039 0.039 -0.078 -0.078ZM0.22 0.362l0.163 -0.163 0.078 0.078L0.298 0.44H0.22Z"/></svg>