<svg width="267" height="346" viewBox="0 0 267 346" fill="none" xmlns="http://www.w3.org/2000/svg">
<path d="M228.071 70.7758C218.532 53.5057 204.529 39.1144 187.527 29.1054C170.525 19.0964 151.147 13.837 131.417 13.8766L131.484 46.9265C145.294 46.8988 158.859 50.5803 170.761 57.5867C182.662 64.593 192.464 74.6669 199.142 86.7559L228.071 70.7758Z" fill="#FF8DA0"/>
<path d="M226.299 180.397C236.391 163.444 241.746 144.092 241.803 124.362C241.86 104.633 236.618 85.2497 226.624 68.2385L198.128 84.9798C205.124 96.8876 208.793 110.456 208.753 124.266C208.713 138.077 204.965 151.623 197.901 163.491L226.299 180.397Z" fill="#FF6D85"/>
<path d="M132.598 234.205C152.327 234.033 171.648 228.566 188.542 218.374C205.435 208.184 219.282 193.643 228.636 176.271L199.536 160.603C192.989 172.763 183.296 182.941 171.47 190.075C159.644 197.209 146.12 201.036 132.31 201.156L132.598 234.205Z" fill="#FF4C69"/>
<path d="M36.447 177.397C46.0121 194.653 60.0358 209.024 77.0528 219.007C94.0699 228.991 113.456 234.222 133.185 234.153L133.07 201.103C119.259 201.152 105.689 197.49 93.7772 190.501C81.8653 183.513 72.0487 173.453 65.3531 161.374L36.447 177.397Z" fill="#EA1B3D"/>
<path d="M36.6541 70.8324C27.089 88.0883 22.3335 107.596 22.8844 127.318C23.4353 147.04 29.2723 166.252 39.7858 182.947L67.7524 165.336C60.393 153.649 56.3071 140.201 55.9215 126.395C55.5358 112.59 58.8647 98.9345 65.5603 86.8554L36.6541 70.8324Z" fill="#BC1B35"/>
<path d="M132.818 13.8359C113.088 13.8359 93.7208 19.1343 76.7387 29.1775C59.7566 39.2207 45.7832 53.6401 36.2784 70.9293L65.2403 86.8513C71.8936 74.7488 81.675 64.6552 93.5625 57.625C105.45 50.5948 119.007 46.8859 132.818 46.8859V13.8359Z" fill="#FFB8C3"/>
<path fill-rule="evenodd" clip-rule="evenodd" d="M83.7732 142.059V138.743C83.7732 137.863 84.1226 137.019 84.7446 136.397C85.3666 135.775 86.2103 135.426 87.0899 135.426H106.99C107.87 135.426 108.714 135.775 109.336 136.397C109.958 137.019 110.307 137.863 110.307 138.743V142.059C110.307 142.939 109.958 143.783 109.336 144.405C108.714 145.027 107.87 145.376 106.99 145.376H87.0899C86.2103 145.376 85.3666 145.027 84.7446 144.405C84.1226 143.783 83.7732 142.939 83.7732 142.059Z" stroke="#373742" stroke-width="4.68794" stroke-linecap="round" stroke-linejoin="round"/>
<path fill-rule="evenodd" clip-rule="evenodd" d="M90.4068 140.401C90.4068 139.961 90.2321 139.54 89.9211 139.229C89.6101 138.918 89.1883 138.743 88.7485 138.743C88.3086 138.743 87.8868 138.918 87.5758 139.229C87.2648 139.54 87.0901 139.961 87.0901 140.401C87.0901 140.841 87.2648 141.263 87.5758 141.574C87.8868 141.885 88.3086 142.06 88.7485 142.06C89.1883 142.06 89.6101 141.885 89.9211 141.574C90.2321 141.263 90.4068 140.841 90.4068 140.401Z" fill="#373742"/>
<path fill-rule="evenodd" clip-rule="evenodd" d="M83.7732 132.1L83.7898 128.783C83.7924 127.905 84.143 127.064 84.7647 126.444C85.3865 125.824 86.2286 125.476 87.1065 125.476H106.99C107.827 125.476 108.632 125.792 109.246 126.361C109.859 126.93 110.234 127.71 110.297 128.544L110.307 128.803L110.29 132.119C110.288 132.997 109.937 133.838 109.315 134.458C108.694 135.078 107.852 135.426 106.974 135.426H87.0899C86.2531 135.427 85.4472 135.11 84.8336 134.542C84.2201 133.973 83.8442 133.193 83.7815 132.358L83.7732 132.1Z" stroke="#373742" stroke-width="4.68794" stroke-linecap="round" stroke-linejoin="round"/>
<path fill-rule="evenodd" clip-rule="evenodd" d="M90.4068 130.451C90.4068 130.011 90.2321 129.589 89.9211 129.278C89.6101 128.967 89.1883 128.793 88.7485 128.793C88.3086 128.793 87.8868 128.967 87.5758 129.278C87.2648 129.589 87.0901 130.011 87.0901 130.451C87.0901 130.891 87.2648 131.313 87.5758 131.624C87.8868 131.935 88.3086 132.109 88.7485 132.109C89.1883 132.109 89.6101 131.935 89.9211 131.624C90.2321 131.313 90.4068 130.891 90.4068 130.451Z" fill="#373742"/>
<path d="M94.5615 117.148C95.4181 114.904 96.8199 112.909 98.6405 111.342M98.749 111.049C97.563 109.275 97.0431 107.137 97.2815 105.016C97.5199 102.895 98.5012 100.927 100.052 99.4593C101.602 97.9921 103.621 97.1208 105.753 96.9995C107.884 96.8783 109.989 97.515 111.696 98.797M112.556 99.0321C111.979 97.8063 111.685 96.4665 111.696 95.1118C111.706 93.757 112.021 92.422 112.617 91.2053C113.213 89.9887 114.075 88.9215 115.139 88.0826C116.203 87.2438 117.441 86.6548 118.763 86.3591C120.086 86.0634 121.457 86.0686 122.777 86.3744C124.097 86.6801 125.331 87.2785 126.388 88.1255C127.446 88.9724 128.299 90.0461 128.886 91.2673C129.473 92.4884 129.777 93.8258 129.778 95.1806M129.778 95.1806V151.235M129.778 95.1806C129.778 93.8258 130.083 92.4884 130.669 91.2673C131.256 90.0461 132.109 88.9724 133.167 88.1255C134.224 87.2785 135.458 86.6801 136.778 86.3744C138.098 86.0686 139.47 86.0634 140.792 86.3591C142.114 86.6548 143.353 87.2438 144.417 88.0826C145.48 88.9215 146.342 89.9887 146.938 91.2053C147.534 92.422 147.849 93.757 147.859 95.1118C147.87 96.4665 147.576 97.8063 146.999 99.0321M129.778 151.235C129.778 153.153 129.016 154.993 127.659 156.349C126.303 157.705 124.463 158.467 122.545 158.467C120.627 158.467 118.787 157.705 117.43 156.349C116.074 154.993 115.312 153.153 115.312 151.235M129.778 151.235C129.778 153.153 130.54 154.993 131.896 156.349C133.252 157.705 135.092 158.467 137.01 158.467M129.778 104.222C129.778 107.099 130.921 109.858 132.955 111.893C134.99 113.928 137.749 115.071 140.627 115.071M160.915 111.342C162.494 112.699 163.76 114.381 164.628 116.273M160.806 111.049C161.992 109.275 162.512 107.137 162.274 105.016C162.035 102.895 161.054 100.927 159.504 99.4593C157.953 97.9921 155.934 97.1208 153.803 96.9995C151.672 96.8783 149.566 97.515 147.86 98.797" stroke="#373742" stroke-width="5.85992" stroke-linecap="round" stroke-linejoin="round"/>
<path d="M141.435 142.768C141.435 143.843 141.658 144.908 142.093 145.901C142.528 146.894 143.164 147.797 143.967 148.557C145.589 150.092 147.788 150.954 150.081 150.954H173.139C174.841 150.957 176.481 150.349 177.728 149.252C178.975 148.155 179.737 146.651 179.859 145.043C179.981 143.436 179.454 141.844 178.385 140.59C177.316 139.335 175.785 138.511 174.099 138.284C174.118 135.189 172.946 132.193 170.802 129.857C168.657 127.521 165.688 126.004 162.448 125.591C159.209 125.177 155.921 125.894 153.199 127.608C150.478 129.322 148.509 131.917 147.66 134.905C145.864 135.402 144.286 136.437 143.164 137.855C142.041 139.272 141.435 140.996 141.435 142.768Z" stroke="#373742" stroke-width="5.85992" stroke-linejoin="round"/>
<path d="M4.74334 300.075V263.98H21.1408C32.949 263.98 41.0446 271.096 41.0446 282.028C41.0446 292.96 32.949 300.075 21.1408 300.075H4.74334ZM13.0968 293.217H20.7283C27.8957 293.217 32.5881 288.938 32.5881 282.028C32.5881 275.118 27.8957 270.838 20.7283 270.838H13.0968V293.217ZM57.9666 271.921C66.4232 271.921 71.3218 275.84 71.3218 284.245V300.075H63.7934V296.621C62.298 299.147 59.4104 300.488 55.3368 300.488C48.8397 300.488 44.9724 296.878 44.9724 292.083C44.9724 287.184 48.4272 283.781 56.8838 283.781H63.2777C63.2777 280.326 61.2152 278.315 56.8838 278.315C53.9446 278.315 50.9023 279.295 48.8913 280.894L46.0037 275.273C49.046 273.107 53.5321 271.921 57.9666 271.921ZM57.3478 295.074C60.0292 295.074 62.3496 293.836 63.2777 291.309V288.473H57.7604C53.9962 288.473 52.8102 289.866 52.8102 291.722C52.8102 293.733 54.5118 295.074 57.3478 295.074ZM94.3291 293.063L96.4949 298.735C94.8448 299.921 92.4213 300.488 89.9462 300.488C83.3975 300.488 79.5817 297.136 79.5817 290.536V279.14H75.3019V272.953H79.5817V266.198H87.6258V272.953H94.5354V279.14H87.6258V290.433C87.6258 292.805 88.9149 294.094 91.0806 294.094C92.2666 294.094 93.4526 293.733 94.3291 293.063ZM112.2 271.921C120.656 271.921 125.555 275.84 125.555 284.245V300.075H118.027V296.621C116.531 299.147 113.644 300.488 109.57 300.488C103.073 300.488 99.2056 296.878 99.2056 292.083C99.2056 287.184 102.66 283.781 111.117 283.781H117.511C117.511 280.326 115.448 278.315 111.117 278.315C108.178 278.315 105.136 279.295 103.125 280.894L100.237 275.273C103.279 273.107 107.765 271.921 112.2 271.921ZM111.581 295.074C114.262 295.074 116.583 293.836 117.511 291.309V288.473H111.994C108.229 288.473 107.043 289.866 107.043 291.722C107.043 293.733 108.745 295.074 111.581 295.074ZM174.087 300.075H166.249L166.197 278.418L155.575 296.26H151.811L141.24 278.882V300.075H133.402V263.98H140.312L153.822 286.411L167.126 263.98H173.984L174.087 300.075ZM186.105 268.466C183.114 268.466 181.103 266.507 181.103 263.98C181.103 261.454 183.114 259.494 186.105 259.494C189.096 259.494 191.107 261.351 191.107 263.826C191.107 266.507 189.096 268.466 186.105 268.466ZM182.083 300.075V272.334H190.127V300.075H182.083ZM214.454 271.921C221.003 271.921 225.953 275.737 225.953 284.194V300.075H217.909V285.431C217.909 280.945 215.847 278.882 212.289 278.882C208.421 278.882 205.637 281.254 205.637 286.359V300.075H197.593V272.334H205.276V275.582C207.442 273.21 210.69 271.921 214.454 271.921ZM253.76 261.815H261.804V300.075H254.121V296.878C252.11 299.302 249.171 300.488 245.458 300.488C237.62 300.488 231.587 294.919 231.587 286.205C231.587 277.49 237.62 271.921 245.458 271.921C248.861 271.921 251.749 273.004 253.76 275.273V261.815ZM246.85 293.888C250.821 293.888 253.915 291 253.915 286.205C253.915 281.409 250.821 278.522 246.85 278.522C242.828 278.522 239.735 281.409 239.735 286.205C239.735 291 242.828 293.888 246.85 293.888Z" fill="#373742"/>
<path d="M16.6768 339.703L14.7517 335.327H5.45136L3.52629 339.703H0.951195L8.87648 322.202H11.3516L19.3019 339.703H16.6768ZM6.32639 333.327H13.8767L10.1015 324.752L6.32639 333.327ZM21.9125 339.703V322.202H24.4126V339.703H21.9125ZM41.4663 339.903C38.7912 339.903 36.1661 339.003 34.7661 337.703L35.6911 335.752C36.9912 336.928 39.2162 337.778 41.4663 337.778C44.4914 337.778 45.7915 336.603 45.7915 335.077C45.7915 330.802 35.1911 333.502 35.1911 327.002C35.1911 324.302 37.2912 322.002 41.8913 322.002C43.9414 322.002 46.0665 322.552 47.5165 323.552L46.6915 325.552C45.1665 324.577 43.4414 324.127 41.8913 324.127C38.9162 324.127 37.6412 325.377 37.6412 326.902C37.6412 331.177 48.2416 328.502 48.2416 334.927C48.2416 337.603 46.0915 339.903 41.4663 339.903ZM58.2443 337.203L58.9943 338.928C58.2693 339.553 57.1692 339.853 56.0942 339.853C53.4191 339.853 51.894 338.378 51.894 335.702V328.427H49.644V326.452H51.894V323.552H54.2941V326.452H58.0943V328.427H54.2941V335.602C54.2941 337.028 55.0442 337.828 56.3692 337.828C57.0692 337.828 57.7442 337.603 58.2443 337.203ZM67.1317 339.853C63.1566 339.853 60.2314 337.028 60.2314 333.077C60.2314 329.127 63.1566 326.327 67.1317 326.327C71.1068 326.327 74.0069 329.127 74.0069 333.077C74.0069 337.028 71.1068 339.853 67.1317 339.853ZM67.1317 337.753C69.6818 337.753 71.5819 335.903 71.5819 333.077C71.5819 330.252 69.6818 328.427 67.1317 328.427C64.5816 328.427 62.6565 330.252 62.6565 333.077C62.6565 335.903 64.5816 337.753 67.1317 337.753ZM79.6263 328.677C80.4763 327.127 82.1264 326.327 84.4515 326.327V328.652C84.2514 328.627 84.0764 328.627 83.9014 328.627C81.3263 328.627 79.7263 330.202 79.7263 333.102V339.703H77.3262V326.452H79.6263V328.677ZM92.2103 326.327C95.8355 326.327 97.8855 328.077 97.8855 331.702V339.703H95.6104V337.953C94.8104 339.153 93.3354 339.853 91.2603 339.853C88.2602 339.853 86.3601 338.253 86.3601 335.953C86.3601 333.827 87.7352 332.077 91.6853 332.077H95.4854V331.602C95.4854 329.577 94.3104 328.402 91.9353 328.402C90.3603 328.402 88.7602 328.952 87.7352 329.827L86.7351 328.027C88.1102 326.927 90.0852 326.327 92.2103 326.327ZM91.6603 338.003C93.4604 338.003 94.8854 337.178 95.4854 335.652V333.802H91.7853C89.4102 333.802 88.7352 334.727 88.7352 335.852C88.7352 337.178 89.8352 338.003 91.6603 338.003ZM112.801 326.452H115.076V337.903C115.076 342.578 112.701 344.703 108.201 344.703C105.775 344.703 103.325 344.028 101.875 342.728L103.025 340.878C104.25 341.928 106.175 342.603 108.126 342.603C111.251 342.603 112.676 341.153 112.676 338.153V337.103C111.526 338.478 109.801 339.153 107.901 339.153C104.075 339.153 101.175 336.553 101.175 332.727C101.175 328.902 104.075 326.327 107.901 326.327C109.876 326.327 111.676 327.052 112.801 328.502V326.452ZM108.176 337.053C110.826 337.053 112.726 335.277 112.726 332.727C112.726 330.152 110.826 328.427 108.176 328.427C105.5 328.427 103.6 330.152 103.6 332.727C103.6 335.277 105.5 337.053 108.176 337.053ZM131.637 333.152C131.637 333.352 131.612 333.652 131.587 333.877H120.837C121.137 336.203 123.012 337.753 125.637 337.753C127.187 337.753 128.487 337.228 129.462 336.153L130.787 337.703C129.587 339.103 127.762 339.853 125.562 339.853C121.287 339.853 118.437 337.028 118.437 333.077C118.437 329.152 121.262 326.327 125.087 326.327C128.912 326.327 131.637 329.077 131.637 333.152ZM125.087 328.352C122.787 328.352 121.087 329.902 120.837 332.152H129.337C129.087 329.927 127.412 328.352 125.087 328.352ZM149.934 339.903C144.559 339.903 140.609 336.078 140.609 330.952C140.609 325.827 144.559 322.002 149.934 322.002C155.259 322.002 159.21 325.802 159.21 330.952C159.21 336.103 155.259 339.903 149.934 339.903ZM149.934 337.678C153.809 337.678 156.71 334.827 156.71 330.952C156.71 327.077 153.809 324.227 149.934 324.227C146.009 324.227 143.109 327.077 143.109 330.952C143.109 334.827 146.009 337.678 149.934 337.678ZM169.706 326.327C173.581 326.327 176.406 329.027 176.406 333.077C176.406 337.153 173.581 339.853 169.706 339.853C167.831 339.853 166.181 339.128 165.081 337.703V344.553H162.681V326.452H164.981V328.552C166.056 327.077 167.756 326.327 169.706 326.327ZM169.506 337.753C172.056 337.753 173.981 335.903 173.981 333.077C173.981 330.277 172.056 328.427 169.506 328.427C166.981 328.427 165.056 330.277 165.056 333.077C165.056 335.903 166.981 337.753 169.506 337.753ZM186.423 337.203L187.173 338.928C186.448 339.553 185.348 339.853 184.273 339.853C181.598 339.853 180.072 338.378 180.072 335.702V328.427H177.822V326.452H180.072V323.552H182.473V326.452H186.273V328.427H182.473V335.602C182.473 337.028 183.223 337.828 184.548 337.828C185.248 337.828 185.923 337.603 186.423 337.203ZM191.274 323.902C190.349 323.902 189.649 323.227 189.649 322.352C189.649 321.477 190.349 320.777 191.274 320.777C192.199 320.777 192.899 321.452 192.899 322.302C192.899 323.202 192.224 323.902 191.274 323.902ZM190.074 339.703V326.452H192.474V339.703H190.074ZM213.633 326.327C216.858 326.327 219.058 328.177 219.058 332.077V339.703H216.658V332.352C216.658 329.752 215.408 328.477 213.233 328.477C210.833 328.477 209.258 330.002 209.258 332.877V339.703H206.857V332.352C206.857 329.752 205.607 328.477 203.432 328.477C201.032 328.477 199.457 330.002 199.457 332.877V339.703H197.057V326.452H199.357V328.427C200.307 327.077 201.932 326.327 203.932 326.327C205.957 326.327 207.657 327.127 208.532 328.777C209.533 327.277 211.383 326.327 213.633 326.327ZM224.674 323.902C223.749 323.902 223.049 323.227 223.049 322.352C223.049 321.477 223.749 320.777 224.674 320.777C225.599 320.777 226.299 321.452 226.299 322.302C226.299 323.202 225.624 323.902 224.674 323.902ZM223.474 339.703V326.452H225.874V339.703H223.474ZM232.257 337.728H240.282V339.703H229.182V338.153L237.007 328.427H229.332V326.452H240.082V328.027L232.257 337.728ZM255.274 333.152C255.274 333.352 255.249 333.652 255.224 333.877H244.474C244.774 336.203 246.649 337.753 249.274 337.753C250.824 337.753 252.124 337.228 253.099 336.153L254.424 337.703C253.224 339.103 251.399 339.853 249.199 339.853C244.924 339.853 242.074 337.028 242.074 333.077C242.074 329.152 244.899 326.327 248.724 326.327C252.549 326.327 255.274 329.077 255.274 333.152ZM248.724 328.352C246.424 328.352 244.724 329.902 244.474 332.152H252.974C252.724 329.927 251.049 328.352 248.724 328.352ZM260.907 328.677C261.757 327.127 263.407 326.327 265.732 326.327V328.652C265.532 328.627 265.357 328.627 265.182 328.627C262.607 328.627 261.007 330.202 261.007 333.102V339.703H258.607V326.452H260.907V328.677Z" fill="#373742"/>
</svg>
