<svg data-v-0dd9719b="" version="1.0" xmlns="http://www.w3.org/2000/svg" xmlns:xlink="http://www.w3.org/1999/xlink" width="100%" height="100%" viewBox="0 0 340.000000 250.000000" preserveAspectRatio="xMidYMid meet" color-interpolation-filters="sRGB" style="margin: auto;"> <rect data-v-0dd9719b="" x="0" y="0" width="100%" height="100%" fill="#ffffff" fill-opacity="0" class="background"></rect> <!----> <g data-v-0dd9719b="" fill="#e16df5" class="icon-text-wrapper icon-svg-group iconsvg" transform="translate(49.13999938964844,95.05450057983398)"><g class="iconsvg-imagesvg" transform="translate(0,0)" mask="url(#cb628588-95e7-41b6-ab24-20a1dbe92647)"><g><rect fill="#e16df5" fill-opacity="0" stroke-width="2" x="0" y="0" width="60" height="59.890998382943046" class="image-rect"></rect> <svg filter="url(#colors3193776446)" x="0" y="0" width="60" height="59.890998382943046" filtersec="colorsf6662938012" class="image-svg-svg primary" style="overflow: visible;"><svg xmlns="http://www.w3.org/2000/svg" viewBox="0.011198324151337147 0.001194000244140625 102.82463073730469 102.63751220703125"><title>资源 7</title><path d="M12.66 85.25A51.67 51.67 0 0 1 .89 60.92a54.33 54.33 0 0 1 .84-23.29c.56-2.27 1.59-3.15 4.09-3.14 21.34.12 42.68 0 64 .1a6 6 0 0 0 4.83-2c4.32-4.51 8.79-8.88 13.21-13.3.63-.64 1.31-1.23 2.1-2a47 47 0 0 1 9.67 16.08 52.39 52.39 0 0 1 1.53 31.19c-.84 3.45-.84 3.52-4.46 3.52-20.92 0-41.85.06-62.77-.06A8.5 8.5 0 0 0 27 71c-3.9 4.21-8 8.19-12.11 12.26-.65.6-1.33 1.18-2.23 1.99zM90.53 42.5a16.22 16.22 0 0 0-2.08-.37q-28.49 0-57 .06a4.46 4.46 0 0 0-2.8 1.22c-5 4.82-9.81 9.74-14.68 14.64a23 23 0 0 0-1.61 2.18 18.6 18.6 0 0 0 2.41.38h56A5.24 5.24 0 0 0 74 59.18c4.91-4.75 9.69-9.63 14.51-14.47.58-.57 1.09-1.18 2.02-2.21zM14.24 15.92c17.94-20.29 54-22.14 74.41 0zM88.18 86.92c-17.51 19.89-53.3 22-73.72 0z" fill="#000000"></path></svg></svg> <defs><filter id="colors3193776446"><feColorMatrix type="matrix" values="0 0 0 0 0.87890625  0 0 0 0 0.42578125  0 0 0 0 0.95703125  0 0 0 1 0" class="icon-fecolormatrix"></feColorMatrix></filter> <filter id="colorsf6662938012"><feColorMatrix type="matrix" values="0 0 0 0 0.99609375  0 0 0 0 0.99609375  0 0 0 0 0.99609375  0 0 0 1 0" class="icon-fecolormatrix"></feColorMatrix></filter> <filter id="colorsb2813348413"><feColorMatrix type="matrix" values="0 0 0 0 0  0 0 0 0 0  0 0 0 0 0  0 0 0 1 0" class="icon-fecolormatrix"></feColorMatrix></filter></defs></g><rect v-gra="id" width="72" height="71.89099884033203" transform="translate(-6, -6)" style="pointer-events:none;" fill="url(#h2pDj7ZMpanawaTmTlLOn)"></rect></g> <g transform="translate(67,7.732500076293945)"><g data-gra="path-name" fill-rule="" class="tp-name iconsvg-namesvg" transform="translate(0,0)" fill="url(#12064854-2966-4f02-b56b-29efbbb2d388)"><g transform="scale(1)"><g><path d="M6.18-30.27L12.45-30.27Q14.42-30.27 16.12-29.77 17.81-29.27 19.08-28.29 20.34-27.3 21.07-25.83 21.79-24.36 21.79-22.4L21.79-22.4 21.79-8.99Q21.79-7.31 21.42-6.02 21.06-4.73 20.46-3.79 19.87-2.85 19.11-2.19 18.35-1.53 17.58-1.12L17.58-1.12Q15.72-0.13 13.36 0L13.36 0 6.18 0Q4.95 0 4.28-0.42 3.61-0.84 3.31-1.55 3.01-2.25 2.95-3.13 2.9-4.02 2.9-4.97L2.9-4.97 2.9-25.34Q2.9-26.27 2.95-27.15 3.01-28.04 3.31-28.73 3.61-29.42 4.28-29.85 4.95-30.27 6.18-30.27L6.18-30.27ZM12.28-25.21L9.47-25.21 9.47-5.15 12.28-5.15Q13.21-5.19 13.94-5.58L13.94-5.58Q14.25-5.73 14.55-5.99 14.85-6.25 15.09-6.6 15.33-6.96 15.47-7.46 15.61-7.96 15.61-8.6L15.61-8.6 15.61-21.36Q15.61-22.07 15.47-22.62 15.33-23.18 15.09-23.59 14.85-24 14.55-24.28 14.25-24.56 13.94-24.73L13.94-24.73Q13.21-25.14 12.28-25.21L12.28-25.21ZM43.37-16.69L43.37-4.89Q43.37-3.98 43.3-3.1 43.24-2.23 42.91-1.53 42.59-0.84 41.94-0.42 41.29 0 40.12 0L40.12 0Q38.94 0 38.27-0.4 37.6-0.8 37.27-1.37 36.95-1.95 36.87-2.57 36.8-3.2 36.8-3.63L36.8-3.63Q36.6-3.01 36.24-2.36 35.89-1.71 35.33-1.19 34.76-0.67 33.97-0.34 33.19 0 32.13 0L32.13 0Q30.94 0 29.75-0.39 28.56-0.78 27.61-1.69 26.66-2.59 26.06-4.05 25.47-5.51 25.47-7.65L25.47-7.65 25.47-13.92Q25.47-16.08 26.06-17.54 26.66-19 27.61-19.9 28.56-20.8 29.75-21.19 30.94-21.58 32.13-21.58L32.13-21.58Q33.19-21.58 33.97-21.25 34.76-20.93 35.33-20.41 35.89-19.89 36.24-19.24 36.6-18.59 36.8-17.94L36.8-17.94Q36.8-19.02 37.1-19.74 37.4-20.45 37.88-20.87 38.35-21.29 38.95-21.46 39.54-21.62 40.12-21.62L40.12-21.62Q41.21-21.62 41.85-21.2 42.5-20.78 42.84-20.09 43.17-19.41 43.27-18.52 43.37-17.62 43.37-16.69L43.37-16.69ZM32.13-13.45L32.13-8.22Q32.13-7.63 32.17-7.07 32.21-6.51 32.41-6.05 32.6-5.6 32.98-5.33 33.36-5.06 34.03-5.06L34.03-5.06Q34.87-5.06 35.4-5.44 35.93-5.82 36.23-6.6 36.54-7.39 36.66-8.59 36.77-9.79 36.8-11.46L36.8-11.46Q36.8-12.13 36.68-13 36.56-13.88 36.26-14.66 35.95-15.44 35.41-15.98 34.87-16.52 34.03-16.52L34.03-16.52Q33.36-16.52 32.98-16.25 32.6-15.98 32.41-15.54 32.21-15.11 32.17-14.56 32.13-14.01 32.13-13.45L32.13-13.45ZM50.07-21.62L51.28-21.62 51.28-25.42Q51.28-26.33 51.38-27.2 51.47-28.06 51.82-28.74 52.17-29.42 52.82-29.85 53.46-30.27 54.57-30.27L54.57-30.27Q55.65-30.27 56.3-29.85 56.94-29.42 57.28-28.74 57.61-28.06 57.71-27.2 57.81-26.33 57.81-25.42L57.81-25.42 57.81-21.62 59.58-21.62Q60.14-21.62 60.71-21.56 61.27-21.51 61.71-21.25 62.15-20.99 62.42-20.47 62.7-19.95 62.7-19.02L62.7-19.02Q62.7-18.14 62.42-17.62 62.15-17.1 61.71-16.84 61.27-16.58 60.71-16.51 60.14-16.43 59.58-16.43L59.58-16.43 57.81-16.43 57.81-8.86Q57.81-8.43 57.84-7.94 57.87-7.46 58.07-7.05 58.26-6.64 58.65-6.37 59.04-6.1 59.75-6.1L59.75-6.1Q60.53-6.1 61.08-5.98 61.64-5.86 61.99-5.56 62.35-5.25 62.52-4.71 62.7-4.17 62.7-3.33L62.7-3.33Q62.7-2.46 62.3-1.84 61.9-1.21 61.23-0.8 60.55-0.39 59.67-0.19 58.78 0 57.81 0L57.81 0Q56.27 0 55.18-0.32 54.09-0.65 53.37-1.24 52.64-1.84 52.22-2.67 51.8-3.5 51.59-4.54 51.39-5.58 51.33-6.78 51.28-7.98 51.28-9.3L51.28-9.3 51.28-16.43 50.07-16.43Q49.51-16.43 48.96-16.51 48.4-16.58 47.97-16.84 47.54-17.1 47.27-17.62 47-18.14 47-19.02L47-19.02Q47-19.95 47.27-20.47 47.54-20.99 47.97-21.25 48.4-21.51 48.96-21.56 49.51-21.62 50.07-21.62L50.07-21.62ZM84.23-16.69L84.23-4.89Q84.23-3.98 84.16-3.1 84.1-2.23 83.77-1.53 83.45-0.84 82.8-0.42 82.15 0 80.98 0L80.98 0Q79.8 0 79.13-0.4 78.46-0.8 78.13-1.37 77.81-1.95 77.73-2.57 77.66-3.2 77.66-3.63L77.66-3.63Q77.46-3.01 77.1-2.36 76.75-1.71 76.19-1.19 75.62-0.67 74.83-0.34 74.05 0 72.99 0L72.99 0Q71.8 0 70.61-0.39 69.42-0.78 68.47-1.69 67.52-2.59 66.92-4.05 66.33-5.51 66.33-7.65L66.33-7.65 66.33-13.92Q66.33-16.08 66.92-17.54 67.52-19 68.47-19.9 69.42-20.8 70.61-21.19 71.8-21.58 72.99-21.58L72.99-21.58Q74.05-21.58 74.83-21.25 75.62-20.93 76.19-20.41 76.75-19.89 77.1-19.24 77.46-18.59 77.66-17.94L77.66-17.94Q77.66-19.02 77.96-19.74 78.26-20.45 78.74-20.87 79.21-21.29 79.81-21.46 80.4-21.62 80.98-21.62L80.98-21.62Q82.07-21.62 82.71-21.2 83.36-20.78 83.7-20.09 84.03-19.41 84.13-18.52 84.23-17.62 84.23-16.69L84.23-16.69ZM72.99-13.45L72.99-8.22Q72.99-7.63 73.03-7.07 73.07-6.51 73.27-6.05 73.46-5.6 73.84-5.33 74.22-5.06 74.89-5.06L74.89-5.06Q75.73-5.06 76.26-5.44 76.79-5.82 77.09-6.6 77.4-7.39 77.52-8.59 77.63-9.79 77.66-11.46L77.66-11.46Q77.66-12.13 77.54-13 77.42-13.88 77.12-14.66 76.81-15.44 76.27-15.98 75.73-16.52 74.89-16.52L74.89-16.52Q74.22-16.52 73.84-16.25 73.46-15.98 73.27-15.54 73.07-15.11 73.03-14.56 72.99-14.01 72.99-13.45L72.99-13.45ZM103.94-7L103.51-7Q102.88-7 102.44-7.24 102-7.48 101.67-7.85 101.35-8.22 101.12-8.67 100.9-9.12 100.74-9.56L100.74-9.56 96.64-21.4 96.07-21.4 96.07-3.37Q96.07-2.68 95.99-2.08 95.9-1.47 95.61-1.01 95.32-0.54 94.75-0.27 94.17 0 93.18 0L93.18 0Q92.05 0 91.41-0.27 90.76-0.54 90.43-1.01 90.11-1.47 90.02-2.08 89.94-2.68 89.94-3.37L89.94-3.37 89.94-25.34Q89.94-26.27 89.99-27.15 90.04-28.04 90.35-28.73 90.65-29.42 91.31-29.85 91.97-30.27 93.18-30.27L93.18-30.27 96.12-30.27Q96.85-30.27 97.36-30.21 97.87-30.16 98.3-29.85 98.73-29.53 99.16-28.84 99.58-28.15 100.09-26.88 100.59-25.62 101.26-23.66 101.93-21.71 102.91-18.85L102.91-18.85 103.47-17.12 103.99-17.12 104.68-19.28Q105.57-22.01 106.19-23.89 106.82-25.77 107.3-26.99 107.77-28.21 108.15-28.87 108.53-29.53 108.95-29.85 109.37-30.16 109.87-30.21 110.37-30.27 111.08-30.27L111.08-30.27 114.23-30.27Q115.45-30.27 116.1-29.85 116.76-29.42 117.07-28.73 117.37-28.04 117.42-27.15 117.48-26.27 117.48-25.34L117.48-25.34 117.48-3.37Q117.48-2.68 117.39-2.08 117.3-1.47 116.98-1.01 116.66-0.54 116.01-0.27 115.36 0 114.23 0L114.23 0Q113.24 0 112.67-0.27 112.09-0.54 111.8-1.01 111.51-1.47 111.42-2.08 111.34-2.68 111.34-3.37L111.34-3.37 111.34-21.4 110.73-21.4 106.67-9.56Q106.5-9.12 106.28-8.67 106.06-8.22 105.74-7.85 105.41-7.48 104.98-7.24 104.55-7 103.94-7L103.94-7ZM124.35-4.84L124.35-16.78Q124.35-17.68 124.45-18.55 124.55-19.41 124.89-20.09 125.24-20.78 125.89-21.2 126.54-21.62 127.64-21.62L127.64-21.62Q128.74-21.62 129.39-21.2 130.04-20.78 130.38-20.09 130.73-19.41 130.83-18.55 130.92-17.68 130.92-16.78L130.92-16.78 130.92-4.84Q130.92-3.93 130.83-3.06 130.73-2.18 130.38-1.5 130.04-0.82 129.39-0.41 128.74 0 127.64 0L127.64 0Q126.54 0 125.89-0.41 125.24-0.82 124.89-1.5 124.55-2.18 124.45-3.06 124.35-3.93 124.35-4.84L124.35-4.84ZM130.97-26.98L130.97-26.98Q130.97-25.32 130.1-24.51 129.24-23.69 127.68-23.69L127.68-23.69Q126.13-23.69 125.26-24.51 124.4-25.32 124.4-26.98L124.4-26.98Q124.4-28.71 125.26-29.49 126.13-30.27 127.68-30.27L127.68-30.27Q129.35-30.27 130.16-29.49 130.97-28.71 130.97-26.98ZM155.44-13.92L155.44-4.93Q155.44-4 155.33-3.11 155.22-2.23 154.87-1.53 154.51-0.84 153.85-0.42 153.19 0 152.07 0L152.07 0Q150.97 0 150.32-0.42 149.67-0.84 149.32-1.53 148.98-2.23 148.88-3.11 148.78-4 148.78-4.93L148.78-4.93 148.78-13.36Q148.78-13.97 148.73-14.55 148.67-15.13 148.48-15.58 148.28-16.02 147.91-16.29 147.53-16.56 146.88-16.56L146.88-16.56Q145.99-16.56 145.45-15.98 144.91-15.39 144.6-14.38 144.29-13.36 144.18-11.99 144.07-10.61 144.07-9.04L144.07-9.04 144.07-4.93Q144.07-4 143.96-3.11 143.85-2.23 143.5-1.53 143.14-0.84 142.48-0.42 141.82 0 140.7 0L140.7 0Q139.59 0 138.95-0.42 138.3-0.84 137.95-1.53 137.61-2.23 137.51-3.11 137.41-4 137.41-4.93L137.41-4.93 137.41-16.73Q137.41-17.66 137.48-18.54 137.54-19.41 137.86-20.09 138.19-20.78 138.85-21.2 139.51-21.62 140.7-21.62L140.7-21.62Q141.89-21.62 142.56-21.22 143.23-20.82 143.56-20.26 143.9-19.69 143.98-19.07 144.07-18.44 144.07-17.99L144.07-17.99Q144.24-18.61 144.61-19.26 144.98-19.91 145.55-20.43 146.12-20.95 146.92-21.28 147.72-21.62 148.78-21.62L148.78-21.62Q149.97-21.62 151.16-21.23 152.35-20.84 153.3-19.93 154.25-19.02 154.85-17.55 155.44-16.08 155.44-13.92L155.44-13.92ZM177.62-25.34L177.62-4.89Q177.62-3.98 177.56-3.1 177.49-2.23 177.17-1.53 176.84-0.84 176.2-0.42 175.55 0 174.38 0L174.38 0Q173.19 0 172.52-0.4 171.85-0.8 171.53-1.37 171.2-1.95 171.13-2.57 171.05-3.2 171.05-3.63L171.05-3.63Q170.86-3.01 170.5-2.36 170.14-1.71 169.58-1.19 169.02-0.67 168.23-0.34 167.44 0 166.38 0L166.38 0Q165.19 0 164-0.39 162.81-0.78 161.86-1.69 160.91-2.59 160.32-4.05 159.72-5.51 159.72-7.65L159.72-7.65 159.72-13.92Q159.72-16.08 160.32-17.54 160.91-19 161.86-19.9 162.81-20.8 164-21.19 165.19-21.58 166.38-21.58L166.38-21.58Q167.44-21.58 168.23-21.25 169.02-20.93 169.58-20.41 170.14-19.89 170.5-19.24 170.86-18.59 171.05-17.94L171.05-17.94 171.05-25.34Q171.05-26.27 171.15-27.16 171.24-28.06 171.58-28.74 171.91-29.42 172.57-29.85 173.23-30.27 174.38-30.27L174.38-30.27Q175.46-30.27 176.11-29.85 176.76-29.42 177.09-28.74 177.43-28.06 177.52-27.16 177.62-26.27 177.62-25.34L177.62-25.34ZM166.38-13.45L166.38-8.22Q166.38-7.63 166.42-7.07 166.47-6.51 166.66-6.05 166.86-5.6 167.23-5.33 167.61-5.06 168.28-5.06L168.28-5.06Q169.13-5.06 169.66-5.44 170.18-5.82 170.49-6.6 170.79-7.39 170.91-8.59 171.03-9.79 171.05-11.46L171.05-11.46Q171.05-12.13 170.93-13 170.81-13.88 170.51-14.66 170.21-15.44 169.67-15.98 169.13-16.52 168.28-16.52L168.28-16.52Q167.61-16.52 167.23-16.25 166.86-15.98 166.66-15.54 166.47-15.11 166.42-14.56 166.38-14.01 166.38-13.45L166.38-13.45Z" transform="translate(-2.9000000953674316, 30.270000457763672)"></path></g> <!----> <!----> <!----> <!----> <!----> <!----> <!----></g></g> <g data-gra="path-slogan" fill-rule="" class="tp-slogan iconsvg-slogansvg" fill="url(#988ee461-aa6a-46fa-971a-fd4b5bfdd362)" transform="translate(28.790000915527344,36.27000045776367)"><!----> <!----> <g transform="scale(1, 1)"><g transform="scale(1)"><path d="M4.43-3.20L2.06-3.20L2.44-4.40C2.58-4.84 2.72-5.28 2.84-5.72C2.97-6.15 3.10-6.60 3.22-7.06L3.26-7.06C3.39-6.60 3.52-6.15 3.65-5.72C3.78-5.28 3.91-4.84 4.06-4.40ZM4.68-2.40L5.42 0L6.49 0L3.83-7.87L2.70-7.87L0.04 0L1.06 0L1.81-2.40ZM7.61-7.87L7.61 0L8.60 0L8.60-7.87ZM13.21-1.72L12.61-1.02C12.96-0.66 13.36-0.38 13.84-0.17C14.31 0.04 14.82 0.14 15.37 0.14C15.79 0.14 16.16 0.09 16.49-0.03C16.82-0.15 17.10-0.31 17.33-0.51C17.56-0.71 17.74-0.95 17.86-1.22C17.99-1.50 18.05-1.79 18.05-2.10C18.05-2.39 18.01-2.64 17.92-2.86C17.84-3.08 17.72-3.27 17.58-3.44C17.44-3.60 17.26-3.75 17.06-3.87C16.86-3.99 16.65-4.10 16.43-4.20L15.31-4.68C15.15-4.74 15.00-4.81 14.84-4.89C14.69-4.97 14.55-5.05 14.42-5.15C14.30-5.25 14.19-5.37 14.12-5.50C14.04-5.63 14.00-5.80 14.00-5.99C14.00-6.35 14.14-6.63 14.41-6.83C14.67-7.04 15.03-7.14 15.47-7.14C15.84-7.14 16.17-7.07 16.46-6.94C16.75-6.81 17.02-6.63 17.26-6.40L17.80-7.04C17.52-7.33 17.18-7.57 16.78-7.75C16.38-7.93 15.94-8.02 15.47-8.02C15.11-8.02 14.78-7.96 14.48-7.86C14.18-7.76 13.92-7.61 13.70-7.42C13.48-7.23 13.31-7.01 13.18-6.76C13.06-6.50 13.00-6.22 13.00-5.93C13.00-5.64 13.04-5.39 13.14-5.17C13.24-4.95 13.36-4.76 13.51-4.60C13.66-4.44 13.84-4.30 14.03-4.19C14.22-4.08 14.41-3.98 14.59-3.90L15.72-3.41C15.90-3.32 16.08-3.24 16.24-3.16C16.40-3.08 16.53-2.99 16.65-2.89C16.77-2.79 16.86-2.67 16.93-2.53C16.99-2.39 17.03-2.22 17.03-2.02C17.03-1.63 16.88-1.32 16.60-1.09C16.31-0.85 15.90-0.73 15.38-0.73C14.98-0.73 14.58-0.82 14.20-1.00C13.82-1.18 13.49-1.42 13.21-1.72ZM20.99-7.03L20.99 0L22.00 0L22.00-7.03L24.37-7.03L24.37-7.87L18.61-7.87L18.61-7.03ZM28.40 0.14C28.90 0.14 29.35 0.05 29.77-0.14C30.18-0.34 30.53-0.61 30.83-0.97C31.13-1.32 31.37-1.75 31.53-2.26C31.69-2.77 31.78-3.34 31.78-3.97C31.78-4.60 31.69-5.16 31.53-5.66C31.37-6.16 31.13-6.58 30.83-6.93C30.53-7.28 30.18-7.55 29.77-7.73C29.35-7.92 28.90-8.02 28.40-8.02C27.91-8.02 27.45-7.92 27.04-7.74C26.63-7.56 26.28-7.29 25.98-6.94C25.68-6.59 25.45-6.17 25.29-5.67C25.13-5.17 25.04-4.60 25.04-3.97C25.04-3.34 25.13-2.77 25.29-2.26C25.45-1.75 25.68-1.32 25.98-0.97C26.28-0.61 26.63-0.34 27.04-0.14C27.45 0.05 27.91 0.14 28.40 0.14ZM28.40-0.73C28.05-0.73 27.73-0.81 27.45-0.96C27.17-1.11 26.92-1.33 26.72-1.61C26.51-1.90 26.36-2.24 26.24-2.63C26.13-3.03 26.08-3.48 26.08-3.97C26.08-4.46 26.13-4.90 26.24-5.29C26.36-5.68 26.51-6.02 26.72-6.29C26.92-6.56 27.17-6.77 27.45-6.92C27.73-7.07 28.05-7.14 28.40-7.14C28.76-7.14 29.07-7.07 29.36-6.92C29.64-6.77 29.89-6.56 30.09-6.29C30.29-6.02 30.45-5.68 30.56-5.29C30.68-4.90 30.73-4.46 30.73-3.97C30.73-3.48 30.68-3.03 30.56-2.63C30.45-2.24 30.29-1.90 30.09-1.61C29.89-1.33 29.64-1.11 29.36-0.96C29.07-0.81 28.76-0.73 28.40-0.73ZM34.46-4.14L34.46-7.07L35.78-7.07C36.40-7.07 36.87-6.96 37.20-6.76C37.53-6.55 37.69-6.18 37.69-5.66C37.69-5.15 37.53-4.77 37.20-4.52C36.87-4.27 36.40-4.14 35.78-4.14ZM37.79 0L38.92 0L36.92-3.43C37.46-3.57 37.89-3.82 38.21-4.19C38.53-4.56 38.69-5.05 38.69-5.66C38.69-6.07 38.62-6.42 38.48-6.70C38.35-6.98 38.16-7.20 37.91-7.38C37.67-7.56 37.38-7.68 37.04-7.76C36.70-7.83 36.33-7.87 35.93-7.87L33.47-7.87L33.47 0L34.46 0L34.46-3.32L35.89-3.32ZM43.67-3.20L41.30-3.20L41.68-4.40C41.82-4.84 41.96-5.28 42.08-5.72C42.21-6.15 42.34-6.60 42.46-7.06L42.50-7.06C42.63-6.60 42.76-6.15 42.89-5.72C43.02-5.28 43.15-4.84 43.30-4.40ZM43.92-2.40L44.66 0L45.73 0L43.07-7.87L41.94-7.87L39.28 0L40.30 0L41.05-2.40ZM46.27-3.94C46.27-3.30 46.36-2.72 46.54-2.21C46.71-1.71 46.96-1.28 47.27-0.93C47.58-0.58 47.95-0.32 48.38-0.13C48.82 0.05 49.29 0.14 49.81 0.14C50.34 0.14 50.81 0.06 51.23-0.11C51.65-0.29 51.99-0.50 52.25-0.77L52.25-4.08L49.67-4.08L49.67-3.25L51.34-3.25L51.34-1.20C51.18-1.06 50.97-0.94 50.72-0.86C50.47-0.77 50.20-0.73 49.92-0.73C49.50-0.73 49.12-0.81 48.80-0.96C48.47-1.11 48.20-1.33 47.98-1.61C47.76-1.89 47.59-2.23 47.48-2.62C47.36-3.02 47.30-3.46 47.30-3.96C47.30-4.45 47.37-4.89 47.49-5.28C47.61-5.67 47.79-6.01 48.01-6.28C48.24-6.56 48.51-6.77 48.83-6.92C49.15-7.07 49.51-7.14 49.91-7.14C50.31-7.14 50.64-7.07 50.90-6.93C51.16-6.79 51.39-6.62 51.59-6.41L52.15-7.04C51.92-7.28 51.62-7.51 51.26-7.71C50.89-7.91 50.44-8.02 49.90-8.02C49.37-8.02 48.88-7.92 48.44-7.73C48.00-7.55 47.62-7.28 47.30-6.92C46.97-6.57 46.72-6.14 46.54-5.64C46.36-5.14 46.27-4.57 46.27-3.94ZM54.13-7.87L54.13 0L58.79 0L58.79-0.85L55.13-0.85L55.13-3.71L58.12-3.71L58.12-4.56L55.13-4.56L55.13-7.03L58.67-7.03L58.67-7.87ZM65.78 0.14C66.28 0.14 66.73 0.05 67.15-0.14C67.56-0.34 67.91-0.61 68.21-0.97C68.51-1.32 68.75-1.75 68.91-2.26C69.07-2.77 69.16-3.34 69.16-3.97C69.16-4.60 69.07-5.16 68.91-5.66C68.75-6.16 68.51-6.58 68.21-6.93C67.91-7.28 67.56-7.55 67.15-7.73C66.73-7.92 66.28-8.02 65.78-8.02C65.29-8.02 64.83-7.92 64.42-7.74C64.01-7.56 63.66-7.29 63.36-6.94C63.06-6.59 62.83-6.17 62.67-5.67C62.51-5.17 62.42-4.60 62.42-3.97C62.42-3.34 62.51-2.77 62.67-2.26C62.83-1.75 63.06-1.32 63.36-0.97C63.66-0.61 64.01-0.34 64.42-0.14C64.83 0.05 65.29 0.14 65.78 0.14ZM65.78-0.73C65.43-0.73 65.11-0.81 64.83-0.96C64.55-1.11 64.30-1.33 64.10-1.61C63.89-1.90 63.74-2.24 63.62-2.63C63.51-3.03 63.46-3.48 63.46-3.97C63.46-4.46 63.51-4.90 63.62-5.29C63.74-5.68 63.89-6.02 64.10-6.29C64.30-6.56 64.55-6.77 64.83-6.92C65.11-7.07 65.43-7.14 65.78-7.14C66.14-7.14 66.45-7.07 66.74-6.92C67.02-6.77 67.27-6.56 67.47-6.29C67.67-6.02 67.83-5.68 67.94-5.29C68.06-4.90 68.11-4.46 68.11-3.97C68.11-3.48 68.06-3.03 67.94-2.63C67.83-2.24 67.67-1.90 67.47-1.61C67.27-1.33 67.02-1.11 66.74-0.96C66.45-0.81 66.14-0.73 65.78-0.73ZM70.85-7.87L70.85 0L71.84 0L71.84-3.12L73.26-3.12C73.69-3.12 74.09-3.17 74.44-3.27C74.80-3.37 75.10-3.52 75.36-3.72C75.62-3.92 75.81-4.17 75.95-4.48C76.09-4.78 76.16-5.14 76.16-5.56C76.16-5.99 76.09-6.35 75.95-6.65C75.81-6.94 75.62-7.18 75.37-7.36C75.11-7.54 74.81-7.67 74.45-7.75C74.09-7.83 73.69-7.87 73.26-7.87ZM73.14-3.94L71.84-3.94L71.84-7.07L73.14-7.07C73.82-7.07 74.33-6.96 74.66-6.74C75-6.52 75.17-6.12 75.17-5.56C75.17-5.00 75.00-4.59 74.67-4.33C74.34-4.07 73.83-3.94 73.14-3.94ZM79.10-7.03L79.10 0L80.11 0L80.11-7.03L82.49-7.03L82.49-7.87L76.73-7.87L76.73-7.03ZM83.90-7.87L83.90 0L84.90 0L84.90-7.87ZM87.06-7.87L87.06 0L87.98 0L87.98-4.33C87.98-4.68 87.97-5.07 87.94-5.50C87.90-5.92 87.88-6.31 87.85-6.66L87.90-6.66L88.52-4.91L90.05-0.79L90.61-0.79L92.12-4.91L92.76-6.66L92.81-6.66C92.78-6.31 92.75-5.92 92.72-5.50C92.69-5.07 92.68-4.68 92.68-4.33L92.68 0L93.62 0L93.62-7.87L92.45-7.87L90.94-3.65L90.38-2.04L90.34-2.04L89.76-3.65L88.24-7.87ZM95.78-7.87L95.78 0L96.78 0L96.78-7.87ZM98.40-0.60L98.40 0L103.82 0L103.82-0.85L99.64-0.85L103.79-7.28L103.79-7.87L98.77-7.87L98.77-7.03L102.54-7.03ZM105.41-7.87L105.41 0L110.06 0L110.06-0.85L106.40-0.85L106.40-3.71L109.39-3.71L109.39-4.56L106.40-4.56L106.40-7.03L109.94-7.03L109.94-7.87ZM112.73-4.14L112.73-7.07L114.05-7.07C114.66-7.07 115.14-6.96 115.46-6.76C115.79-6.55 115.96-6.18 115.96-5.66C115.96-5.15 115.79-4.77 115.46-4.52C115.14-4.27 114.66-4.14 114.05-4.14ZM116.05 0L117.18 0L115.19-3.43C115.72-3.57 116.15-3.82 116.47-4.19C116.79-4.56 116.95-5.05 116.95-5.66C116.95-6.07 116.88-6.42 116.75-6.70C116.61-6.98 116.42-7.20 116.18-7.38C115.93-7.56 115.64-7.68 115.30-7.76C114.96-7.83 114.59-7.87 114.19-7.87L111.73-7.87L111.73 0L112.73 0L112.73-3.32L114.16-3.32Z" transform="translate(-0.036000000000000004, 8.016)"></path></g></g></g></g></g><defs v-gra="od"><linearGradient x1="0" y1="1" x2="0" y2="0" id="988ee461-aa6a-46fa-971a-fd4b5bfdd362"><stop offset="0%" stop-color="#e16df5"></stop><stop offset="100%" stop-color="#4ef8e7"></stop></linearGradient><filter id="42443b3f1de60f6b6fd3b6a9844b4764" filterUnits="objectBoundingBox"><feColorMatrix type="matrix" values="0 0 0 0 0.99609375  0 0 0 0 0.99609375  0 0 0 0 0.99609375  0 0 0 1 0"></feColorMatrix></filter><linearGradient x1="0" y1="1" x2="0" y2="0" id="12064854-2966-4f02-b56b-29efbbb2d388"><stop offset="0%" stop-color="#e16df5"></stop><stop offset="100%" stop-color="#4ef8e7"></stop></linearGradient><filter id="42443b3f1de60f6b6fd3b6a9844b4764" filterUnits="objectBoundingBox"><feColorMatrix type="matrix" values="0 0 0 0 0.99609375  0 0 0 0 0.99609375  0 0 0 0 0.99609375  0 0 0 1 0"></feColorMatrix></filter></defs><defs v-gra="id"><filter id="fa6ad2e3-8d74-425d-85b5-47302dac5554" filterUnits="userSpaceOnUse"><feColorMatrix type="matrix" values="0 0 0 0 0.99609375  0 0 0 0 0.99609375  0 0 0 0 0.99609375  0 0 0 1 0"></feColorMatrix></filter><linearGradient x1="0" y1="1" x2="0" y2="0" id="h2pDj7ZMpanawaTmTlLOn"><stop offset="0%" stop-color="#e16df5"></stop><stop offset="100%" stop-color="#4ef8e7"></stop></linearGradient><filter id="42443b3f1de60f6b6fd3b6a9844b4764" filterUnits="objectBoundingBox"><feColorMatrix type="matrix" values="0 0 0 0 0.99609375  0 0 0 0 0.99609375  0 0 0 0 0.99609375  0 0 0 1 0"></feColorMatrix></filter></defs><mask v-gra="im" id="cb628588-95e7-41b6-ab24-20a1dbe92647"><g class="iconsvg-imagesvg" filter="url(#fa6ad2e3-8d74-425d-85b5-47302dac5554)"><g><rect fill="#e16df5" fill-opacity="0" stroke-width="2" x="0" y="0" width="60" height="59.890998382943046" class="image-rect"></rect> <svg x="0" y="0" width="60" height="59.890998382943046" filtersec="colorsf6662938012" class="image-svg-svg primary" style="overflow: visible;"><svg xmlns="http://www.w3.org/2000/svg" viewBox="0.011198324151337147 0.001194000244140625 102.82463073730469 102.63751220703125"><title>资源 7</title><path d="M12.66 85.25A51.67 51.67 0 0 1 .89 60.92a54.33 54.33 0 0 1 .84-23.29c.56-2.27 1.59-3.15 4.09-3.14 21.34.12 42.68 0 64 .1a6 6 0 0 0 4.83-2c4.32-4.51 8.79-8.88 13.21-13.3.63-.64 1.31-1.23 2.1-2a47 47 0 0 1 9.67 16.08 52.39 52.39 0 0 1 1.53 31.19c-.84 3.45-.84 3.52-4.46 3.52-20.92 0-41.85.06-62.77-.06A8.5 8.5 0 0 0 27 71c-3.9 4.21-8 8.19-12.11 12.26-.65.6-1.33 1.18-2.23 1.99zM90.53 42.5a16.22 16.22 0 0 0-2.08-.37q-28.49 0-57 .06a4.46 4.46 0 0 0-2.8 1.22c-5 4.82-9.81 9.74-14.68 14.64a23 23 0 0 0-1.61 2.18 18.6 18.6 0 0 0 2.41.38h56A5.24 5.24 0 0 0 74 59.18c4.91-4.75 9.69-9.63 14.51-14.47.58-.57 1.09-1.18 2.02-2.21zM14.24 15.92c17.94-20.29 54-22.14 74.41 0zM88.18 86.92c-17.51 19.89-53.3 22-73.72 0z" fill="#000000"></path></svg></svg> <defs><filter id="colors3193776446"><feColorMatrix type="matrix" values="0 0 0 0 0.87890625  0 0 0 0 0.42578125  0 0 0 0 0.95703125  0 0 0 1 0" class="icon-fecolormatrix"></feColorMatrix></filter> <filter id="colorsf6662938012"><feColorMatrix type="matrix" values="0 0 0 0 0.99609375  0 0 0 0 0.99609375  0 0 0 0 0.99609375  0 0 0 1 0" class="icon-fecolormatrix"></feColorMatrix></filter> <filter id="colorsb2813348413"><feColorMatrix type="matrix" values="0 0 0 0 0  0 0 0 0 0  0 0 0 0 0  0 0 0 1 0" class="icon-fecolormatrix"></feColorMatrix></filter></defs></g></g></mask></svg>